<svg width="176" height="37" viewBox="0 0 176 37" fill="none" xmlns="http://www.w3.org/2000/svg">
<path fill-rule="evenodd" clip-rule="evenodd" d="M176 0H161.536V3.25699H172.743V5.55088H161.536V14.1837H176V10.9267H164.793V8.80787H176V0ZM81.9501 36.6411V31.5193H87.0719V26.3974H92.1938V36.6411H81.9501ZM97.3157 21.2755V26.3974H92.1938V21.2755H97.3157ZM97.3157 16.1536V21.2755H102.438V26.3974H107.559V36.6411H117.803V31.5193H112.681V26.3974H107.559V21.2755H102.438V16.1536H107.559V11.0317H112.681V5.90986H117.803V0.787981H107.559V11.0317H102.438V16.1536H97.3157ZM92.1938 11.0317H97.3157V16.1536H92.1938V11.0317ZM92.1938 11.0317H87.0719V5.90986H81.9501V0.787981H92.1938V11.0317ZM46.0969 31.5193V36.6411H71.7063V31.5193H61.4626V5.90986H71.7063V0.787981H46.0969V5.90986H56.3407V31.5193H46.0969ZM30.7313 16.1536V5.90986H35.8532V16.1536H30.7313ZM5.12188 16.1536H30.7313V21.2755H5.12188V36.6411H0V0.787981H30.7313V5.90986H5.12188V16.1536ZM133.169 0.787981V36.6411H169.022V31.5193H138.291V0.787981H133.169Z" fill="black"/>
</svg>
